<svg width="44" height="39" viewBox="0 0 44 39" fill="none" xmlns="http://www.w3.org/2000/svg">
<path d="M40.3425 22.952L43.9536 7.10828C44.2144 5.96433 43.3424 4.875 42.1659 4.875H12.1617L11.4615 1.46174C11.2871 0.610975 10.5363 0 9.66541 0H1.83333C0.820799 0 0 0.818467 0 1.82812V3.04688C0 4.05653 0.820799 4.875 1.83333 4.875H7.17162L12.5378 31.0351C11.254 31.7713 10.3889 33.1517 10.3889 34.7344C10.3889 37.0902 12.3041 39 14.6667 39C17.0292 39 18.9444 37.0902 18.9444 34.7344C18.9444 33.5405 18.452 32.4618 17.6593 31.6875H33.674C32.8814 32.4618 32.3889 33.5405 32.3889 34.7344C32.3889 37.0902 34.3041 39 36.6667 39C39.0292 39 40.9444 37.0902 40.9444 34.7344C40.9444 33.0455 39.9599 31.586 38.5322 30.8949L38.9536 29.0458C39.2143 27.9018 38.3423 26.8125 37.1659 26.8125H16.6617L16.1618 24.375H38.5548C39.4108 24.375 40.1528 23.7844 40.3425 22.952Z" fill="white"/>
</svg>
