<svg width="100" height="98" viewBox="0 0 100 98" fill="none" xmlns="http://www.w3.org/2000/svg">
<path d="M74.0022 48.3369H59.1496V38.688C59.1496 36.6256 59.6675 34.6495 60.9561 33.1942C62.2344 31.7505 64.3381 30.744 67.6719 30.744H74.6518H75.1518V30.244V16.9447V16.5211L74.7339 16.4515L74.6518 16.9447C74.7339 16.4515 74.7339 16.4515 74.7338 16.4514L74.7335 16.4514L74.7325 16.4512L74.7287 16.4506L74.7144 16.4482L74.6589 16.4392C74.6101 16.4313 74.5382 16.4199 74.4448 16.4053C74.2579 16.3762 73.9848 16.3346 73.6384 16.2849C72.9457 16.1853 71.9594 16.0528 70.7831 15.9202C68.4325 15.6553 65.3139 15.3894 62.2589 15.3894C55.8365 15.3894 50.4721 17.291 46.7115 20.968C42.949 24.647 40.8504 30.0461 40.8504 36.9242V48.3369H27.2879H26.7879V48.8369V64.4669V64.9669H27.2879H40.8504V97.1738H10.7143C8.00154 97.1738 5.4022 96.1212 3.48751 94.251C1.57322 92.3812 0.5 89.8478 0.5 87.2088V10.4651C0.5 7.826 1.57322 5.2926 3.48751 3.42283C5.4022 1.55268 8.00154 0.5 10.7143 0.5H89.2857C91.9985 0.5 94.5978 1.55268 96.5125 3.42283C98.4268 5.2926 99.5 7.826 99.5 10.4651V87.2088C99.5 89.8478 98.4268 92.3812 96.5125 94.251C94.5978 96.1212 91.9985 97.1738 89.2857 97.1738H59.1496V64.9669H71.5469H71.9745L72.0408 64.5445L74.4962 48.9145L74.5869 48.3369H74.0022Z" fill="white" stroke="black"/>
</svg>
