<svg width="100" height="99" viewBox="0 0 100 99" fill="none" xmlns="http://www.w3.org/2000/svg">
<path d="M73.8281 30.3569C73.8279 29.4268 73.5467 28.5184 73.0213 27.7465L72.608 28.0279L73.0213 27.7465C72.4957 26.9745 71.7496 26.3743 70.8785 26.0202C70.0075 25.6662 69.0496 25.5739 68.1256 25.7545C67.2016 25.9351 66.3516 26.3808 65.6837 27.0367C65.0157 27.6927 64.5598 28.5296 64.3752 29.442C64.1906 30.3545 64.286 31.3001 64.6488 32.1588C65.0115 33.0174 65.6249 33.7497 66.4098 34.264C67.1365 34.7401 67.9804 35.01 68.8491 35.047L68.8626 35.0603L69.0672 35.0602C69.6929 35.0599 70.3127 34.9383 70.8909 34.7023C71.4692 34.4662 71.9949 34.1202 72.4376 33.6836C72.8804 33.2469 73.2314 32.7283 73.4702 32.1571C73.7089 31.5863 73.8306 30.9745 73.8281 30.3569ZM73.8281 30.3569C73.8281 30.3565 73.8281 30.3562 73.8281 30.3558L73.3281 30.3579H73.8281C73.8281 30.3576 73.8281 30.3572 73.8281 30.3569ZM35.2478 84.3802C41.1618 84.7076 58.8503 84.7076 64.765 84.3802C70.5415 84.1096 75.7459 82.782 80.044 78.5746C84.3456 74.3635 85.6722 69.2437 85.9636 63.5647L85.4643 63.5378C85.7969 57.7449 85.7969 40.4101 85.4643 34.6435L85.9637 34.6192C85.9637 34.6185 85.9636 34.6178 85.9636 34.6171C85.6878 28.9355 84.3357 23.8151 80.0447 19.5965C75.7542 15.3784 70.5457 14.0759 64.7651 13.7901C58.8509 13.4628 41.1641 13.4628 35.249 13.7901C29.4886 14.0605 24.2841 15.3725 19.9701 19.5798C15.6517 23.7914 14.3412 28.9122 14.0498 34.59C13.7163 40.3918 13.7163 57.7551 14.0498 63.5644C14.3256 69.234 15.6617 74.3553 19.9693 78.5745C24.2748 82.7915 29.4667 84.0943 35.2478 84.3802ZM35.2478 84.3802C35.2475 84.3802 35.2472 84.3801 35.2469 84.3801L35.2746 83.8809M35.2478 84.3802C35.2485 84.3802 35.2492 84.3802 35.2499 84.3803L35.2746 83.8809M35.2746 83.8809C41.1696 84.2073 58.8438 84.2073 64.7388 83.8809H35.2746ZM77.3731 28.5945L77.4688 28.8325L77.4735 28.8336C78.301 31.0758 78.6411 34.754 78.7628 38.5782C78.8526 41.3969 78.8234 44.2386 78.7995 46.5687C78.7899 47.4976 78.7812 48.3451 78.7812 49.0775C78.7812 49.8098 78.7899 50.6574 78.7995 51.5865C78.8234 53.918 78.8526 56.7622 78.7628 59.5826C78.6367 63.5465 78.2762 67.351 77.3826 69.5571L77.3821 69.5583C76.8019 71.0016 75.9254 72.3131 74.8067 73.4112C73.6879 74.5094 72.3506 75.3707 70.8774 75.9413L70.8765 75.9416C68.6177 76.8217 64.7402 77.1755 60.7065 77.299C57.8392 77.3868 54.9476 77.358 52.5744 77.3344C51.6247 77.3249 50.7579 77.3163 50.0089 77.3163C49.2743 77.3163 48.4258 77.3243 47.4966 77.3331C45.1122 77.3556 42.1958 77.3831 39.3054 77.2933C35.2694 77.1678 31.3908 76.8141 29.1382 75.9413L29.1382 75.9413C27.6651 75.3707 26.3278 74.5094 25.209 73.4112C24.0902 72.3131 23.2138 71.0016 22.6336 69.5583L22.6335 69.5582C21.7426 67.3436 21.3801 63.5375 21.2509 59.5753C21.1581 56.7319 21.1859 53.8643 21.2087 51.5228C21.2174 50.6178 21.2254 49.7914 21.2254 49.0753C21.2254 48.357 21.2174 47.5275 21.2085 46.6189C21.1858 44.2778 21.1579 41.4117 21.2497 38.5705C21.3778 34.6067 21.7382 30.8012 22.6247 28.5944C23.2049 27.1511 24.0813 25.8397 25.2 24.7416C26.3188 23.6434 27.6561 22.7821 29.1292 22.2115L29.1302 22.2112C31.389 21.331 35.2676 20.9773 39.3021 20.8538C42.1702 20.766 45.0624 20.7948 47.4355 20.8184C48.385 20.8279 49.2515 20.8365 50 20.8365C50.7343 20.8365 51.5824 20.8285 52.5114 20.8197C54.8952 20.7972 57.8113 20.7697 60.7015 20.8595C64.7373 20.985 68.6158 21.3387 70.8685 22.2115L70.8685 22.2115C72.3416 22.7821 73.6789 23.6434 74.7977 24.7416C75.9165 25.8397 76.7929 27.1512 77.3731 28.5945ZM43.6608 39.7806C45.5362 38.5497 47.7423 37.8918 50 37.8909C53.0282 37.8921 55.9302 39.0731 58.0691 41.1717C60.2077 43.2701 61.4084 46.1139 61.4107 49.0779C61.4106 51.288 60.743 53.4492 59.4911 55.2884C58.2391 57.1278 56.4585 58.563 54.3735 59.4109C52.2883 60.2589 49.9934 60.4811 47.7791 60.0491C45.5648 59.6171 43.532 58.5506 41.9372 56.9858C40.3425 55.4211 39.2574 53.4286 38.8176 51.2607C38.3777 49.0928 38.6025 46.8455 39.464 44.8025C40.3255 42.7594 41.7855 41.0114 43.6608 39.7806ZM39.5569 64.4337C42.6487 66.4614 46.2827 67.5432 49.9994 67.5434L50 67.0434C52.4045 67.0462 54.7859 66.5835 57.0079 65.6817C59.23 64.7798 61.2489 63.4566 62.9491 61.7877C64.6494 60.1189 65.9975 58.1372 66.9163 55.9561C67.8351 53.7751 68.3065 51.4376 68.3036 49.0775H68.8036C68.8036 49.0773 68.8036 49.0771 68.8036 49.0769C68.8034 45.4228 67.6994 41.8516 65.6322 38.8148C63.5649 35.778 60.6276 33.4125 57.1928 32.016C53.758 30.6195 49.9791 30.2543 46.3333 30.9661C42.6876 31.6779 39.3375 33.4351 36.7072 36.0169C34.0768 38.5988 32.2844 41.8894 31.5581 45.4732C30.8318 49.0571 31.2047 52.7718 32.629 56.1471C34.0534 59.5224 36.4648 62.4057 39.5569 64.4337ZM10.7143 0.5H89.2857C91.9977 0.5 94.5967 1.55754 96.5116 3.43707C98.4262 5.3163 99.5 7.86307 99.5 10.5166V87.6384C99.5 90.2919 98.4262 92.8387 96.5116 94.7179C94.5967 96.5975 91.9977 97.655 89.2857 97.655H10.7143C8.00231 97.655 5.40325 96.5975 3.48839 94.7179C1.57384 92.8387 0.5 90.2919 0.5 87.6384V10.5166C0.5 7.86307 1.57384 5.3163 3.48839 3.43707C5.40325 1.55754 8.00232 0.5 10.7143 0.5Z" fill="white" stroke="black"/>
</svg>
