<svg width="409" height="141" viewBox="0 0 409 141" fill="none" xmlns="http://www.w3.org/2000/svg">
<path d="M38.2793 95.2832L33.5918 103.779L21.9219 122.676L10.2031 103.779L5.51562 95.2832V5.19531H38.2793V20.918L25.291 28.4863V15.5957H18.5039V95.2832L21.9219 105.684L25.291 95.2832V42.8906L21.6777 44.9902V34.8828L25.291 32.7832L38.2793 25.2148V95.2832ZM383.738 35.1758L390.428 31.416V15.2051H383.738V35.1758ZM390.428 5.19531L403.514 15.2051V100.801L398.826 109.297L390.428 122.676V41.084L383.738 44.8926V122.676L375.34 109.297L370.652 100.801V5.19531H390.428Z" fill="#7EE081"/>
<path d="M65.1348 32.5879V15.5957H58.4453V36.4941L65.1348 32.5879ZM45.3594 5.19531H78.2207V105.098H65.1348V42.6953L58.4453 46.6016V105.098H45.3594V5.19531ZM138.279 5.19531V105.098H125.291V15.5957H118.162V105.098H105.076V15.5957H98.3867V105.098H85.3008V5.19531H104.881L105.076 5.29297L111.668 9.49219L118.162 5.29297L118.406 5.19531H138.279ZM158.348 33.2227L158.055 33.418H178.66L178.123 33.7109L165.135 41.2793L163.621 42.207H158.348V95.2832H165.135V61.3965L175.926 55.0977L178.123 53.7793V105.098H145.359V5.19531H178.123V20.8203L165.135 28.3887V15.5957H158.348V33.2227ZM263.768 5.19531V105.098H250.779V15.5957H243.65V105.098H230.564V15.5957H223.875V105.098H210.789V5.19531H230.369L230.564 5.29297L237.156 9.49219L243.65 5.29297L243.895 5.19531H263.768ZM290.623 32.5879V15.5957H283.934V36.4941L290.623 32.5879ZM270.848 5.19531H303.709V105.098H290.623V42.6953L283.934 46.6016V105.098H270.848V5.19531ZM330.564 5.19531H343.553V105.098H330.564V48.1152L323.777 36.4941V105.098H310.789V5.19531H323.777V19.6973L330.564 31.123V5.19531ZM363.621 5.19531V105.098H350.633V5.19531H363.621Z" fill="white"/>
<path d="M38.2793 95.2832L42.6572 97.6986L43.2793 96.571V95.2832H38.2793ZM33.5918 103.779L37.8459 106.407L37.9104 106.302L37.9697 106.195L33.5918 103.779ZM21.9219 122.676L17.6727 125.311L21.9308 132.177L26.176 125.303L21.9219 122.676ZM10.2031 103.779L5.82524 106.195L5.88677 106.306L5.95391 106.414L10.2031 103.779ZM5.51562 95.2832H0.515625V96.571L1.13774 97.6986L5.51562 95.2832ZM5.51562 5.19531V0.195312H0.515625V5.19531H5.51562ZM38.2793 5.19531H43.2793V0.195312H38.2793V5.19531ZM38.2793 20.918L40.7966 25.238L43.2793 23.7914V20.918H38.2793ZM25.291 28.4863H20.291V37.1868L27.8084 32.8064L25.291 28.4863ZM25.291 15.5957H30.291V10.5957H25.291V15.5957ZM18.5039 15.5957V10.5957H13.5039V15.5957H18.5039ZM18.5039 95.2832H13.5039V96.0837L13.7538 96.8443L18.5039 95.2832ZM21.9219 105.684L17.1718 107.245L21.9561 121.802L26.6785 107.224L21.9219 105.684ZM25.291 95.2832L30.0477 96.8241L30.291 96.0729V95.2832H25.291ZM25.291 42.8906H30.291V34.2024L22.7789 38.5675L25.291 42.8906ZM21.6777 44.9902H16.6777V53.6785L24.1898 49.3134L21.6777 44.9902ZM21.6777 34.8828L19.1656 30.5597L16.6777 32.0054V34.8828H21.6777ZM25.291 32.7832L27.8031 37.1063L27.8084 37.1033L25.291 32.7832ZM38.2793 25.2148H43.2793V16.5144L35.762 20.8948L38.2793 25.2148ZM33.9014 92.8678L29.2139 101.364L37.9697 106.195L42.6572 97.6986L33.9014 92.8678ZM29.3377 101.152L17.6677 120.049L26.176 125.303L37.8459 106.407L29.3377 101.152ZM26.1711 120.041L14.4523 101.144L5.95391 106.414L17.6727 125.311L26.1711 120.041ZM14.581 101.364L9.89351 92.8678L1.13774 97.6986L5.82524 106.195L14.581 101.364ZM10.5156 95.2832V5.19531H0.515625V95.2832H10.5156ZM5.51562 10.1953H38.2793V0.195312H5.51562V10.1953ZM33.2793 5.19531V20.918H43.2793V5.19531H33.2793ZM35.762 16.5979L22.7737 24.1663L27.8084 32.8064L40.7966 25.238L35.762 16.5979ZM30.291 28.4863V15.5957H20.291V28.4863H30.291ZM25.291 10.5957H18.5039V20.5957H25.291V10.5957ZM13.5039 15.5957V95.2832H23.5039V15.5957H13.5039ZM13.7538 96.8443L17.1718 107.245L26.6719 104.123L23.254 93.7222L13.7538 96.8443ZM26.6785 107.224L30.0477 96.8241L20.5344 93.7423L17.1652 104.143L26.6785 107.224ZM30.291 95.2832V42.8906H20.291V95.2832H30.291ZM22.7789 38.5675L19.1656 40.6671L24.1898 49.3134L27.8031 47.2138L22.7789 38.5675ZM26.6777 44.9902V34.8828H16.6777V44.9902H26.6777ZM24.1898 39.2059L27.8031 37.1063L22.7789 28.4601L19.1656 30.5597L24.1898 39.2059ZM27.8084 37.1033L40.7966 29.5349L35.762 20.8948L22.7737 28.4631L27.8084 37.1033ZM33.2793 25.2148V95.2832H43.2793V25.2148H33.2793ZM65.1348 32.5879L67.6561 36.9056L70.1348 35.4582V32.5879H65.1348ZM65.1348 15.5957H70.1348V10.5957H65.1348V15.5957ZM58.4453 15.5957V10.5957H53.4453V15.5957H58.4453ZM58.4453 36.4941H53.4453V45.2039L60.9666 40.8119L58.4453 36.4941ZM45.3594 5.19531V0.195312H40.3594V5.19531H45.3594ZM78.2207 5.19531H83.2207V0.195312H78.2207V5.19531ZM78.2207 105.098V110.098H83.2207V105.098H78.2207ZM65.1348 105.098H60.1348V110.098H65.1348V105.098ZM65.1348 42.6953H70.1348V33.9856L62.6135 38.3776L65.1348 42.6953ZM58.4453 46.6016L55.924 42.2838L53.4453 43.7312V46.6016H58.4453ZM58.4453 105.098V110.098H63.4453V105.098H58.4453ZM45.3594 105.098H40.3594V110.098H45.3594V105.098ZM70.1348 32.5879V15.5957H60.1348V32.5879H70.1348ZM65.1348 10.5957H58.4453V20.5957H65.1348V10.5957ZM53.4453 15.5957V36.4941H63.4453V15.5957H53.4453ZM60.9666 40.8119L67.6561 36.9056L62.6135 28.2701L55.924 32.1764L60.9666 40.8119ZM45.3594 10.1953H78.2207V0.195312H45.3594V10.1953ZM73.2207 5.19531V105.098H83.2207V5.19531H73.2207ZM78.2207 100.098H65.1348V110.098H78.2207V100.098ZM70.1348 105.098V42.6953H60.1348V105.098H70.1348ZM62.6135 38.3776L55.924 42.2838L60.9666 50.9193L67.6561 47.0131L62.6135 38.3776ZM53.4453 46.6016V105.098H63.4453V46.6016H53.4453ZM58.4453 100.098H45.3594V110.098H58.4453V100.098ZM50.3594 105.098V5.19531H40.3594V105.098H50.3594ZM138.279 5.19531H143.279V0.195312H138.279V5.19531ZM138.279 105.098V110.098H143.279V105.098H138.279ZM125.291 105.098H120.291V110.098H125.291V105.098ZM125.291 15.5957H130.291V10.5957H125.291V15.5957ZM118.162 15.5957V10.5957H113.162V15.5957H118.162ZM118.162 105.098V110.098H123.162V105.098H118.162ZM105.076 105.098H100.076V110.098H105.076V105.098ZM105.076 15.5957H110.076V10.5957H105.076V15.5957ZM98.3867 15.5957V10.5957H93.3867V15.5957H98.3867ZM98.3867 105.098V110.098H103.387V105.098H98.3867ZM85.3008 105.098H80.3008V110.098H85.3008V105.098ZM85.3008 5.19531V0.195312H80.3008V5.19531H85.3008ZM104.881 5.19531L107.117 0.723177L106.061 0.195312H104.881V5.19531ZM105.076 5.29297L107.763 1.07595L107.544 0.93672L107.312 0.820833L105.076 5.29297ZM111.668 9.49219L108.982 13.7092L111.688 15.4334L114.383 13.6909L111.668 9.49219ZM118.162 5.29297L116.305 0.650585L115.855 0.830795L115.447 1.09427L118.162 5.29297ZM118.406 5.19531V0.195312H117.443L116.549 0.552929L118.406 5.19531ZM133.279 5.19531V105.098H143.279V5.19531H133.279ZM138.279 100.098H125.291V110.098H138.279V100.098ZM130.291 105.098V15.5957H120.291V105.098H130.291ZM125.291 10.5957H118.162V20.5957H125.291V10.5957ZM113.162 15.5957V105.098H123.162V15.5957H113.162ZM118.162 100.098H105.076V110.098H118.162V100.098ZM110.076 105.098V15.5957H100.076V105.098H110.076ZM105.076 10.5957H98.3867V20.5957H105.076V10.5957ZM93.3867 15.5957V105.098H103.387V15.5957H93.3867ZM98.3867 100.098H85.3008V110.098H98.3867V100.098ZM90.3008 105.098V5.19531H80.3008V105.098H90.3008ZM85.3008 10.1953H104.881V0.195312H85.3008V10.1953ZM102.645 9.66745L102.84 9.7651L107.312 0.820833L107.117 0.723177L102.645 9.66745ZM102.39 9.50999L108.982 13.7092L114.354 5.27517L107.763 1.07595L102.39 9.50999ZM114.383 13.6909L120.877 9.49167L115.447 1.09427L108.953 5.29349L114.383 13.6909ZM120.019 9.93535L120.263 9.8377L116.549 0.552929L116.305 0.650585L120.019 9.93535ZM118.406 10.1953H138.279V0.195312H118.406V10.1953ZM158.348 33.2227L161.121 37.3829L163.348 35.8986V33.2227H158.348ZM158.055 33.418L155.281 29.2577L141.541 38.418H158.055V33.418ZM178.66 33.418L181.054 37.8074L178.66 28.418V33.418ZM178.123 33.7109L175.729 29.3215L175.667 29.3553L175.606 29.3909L178.123 33.7109ZM165.135 41.2793L162.617 36.9592L162.569 36.9872L162.522 37.0163L165.135 41.2793ZM163.621 42.207V47.207H165.031L166.234 46.47L163.621 42.207ZM158.348 42.207V37.207H153.348V42.207H158.348ZM158.348 95.2832H153.348V100.283H158.348V95.2832ZM165.135 95.2832V100.283H170.135V95.2832H165.135ZM165.135 61.3965L162.614 57.0783L160.135 58.5256V61.3965H165.135ZM175.926 55.0977L178.446 59.4158L178.472 59.4006L178.498 59.3851L175.926 55.0977ZM178.123 53.7793H183.123V44.9483L175.551 49.4918L178.123 53.7793ZM178.123 105.098V110.098H183.123V105.098H178.123ZM145.359 105.098H140.359V110.098H145.359V105.098ZM145.359 5.19531V0.195312H140.359V5.19531H145.359ZM178.123 5.19531H183.123V0.195312H178.123V5.19531ZM178.123 20.8203L180.64 25.1404L183.123 23.6937V20.8203H178.123ZM165.135 28.3887H160.135V37.0891L167.652 32.7087L165.135 28.3887ZM165.135 15.5957H170.135V10.5957H165.135V15.5957ZM158.348 15.5957V10.5957H153.348V15.5957H158.348ZM155.574 29.0624L155.281 29.2577L160.828 37.5782L161.121 37.3829L155.574 29.0624ZM158.055 38.418H178.66V28.418H158.055V38.418ZM176.266 29.0285L175.729 29.3215L180.517 38.1004L181.054 37.8074L176.266 29.0285ZM175.606 29.3909L162.617 36.9592L167.652 45.5994L180.64 38.031L175.606 29.3909ZM162.522 37.0163L161.008 37.944L166.234 46.47L167.748 45.5423L162.522 37.0163ZM163.621 37.207H158.348V47.207H163.621V37.207ZM153.348 42.207V95.2832H163.348V42.207H153.348ZM158.348 100.283H165.135V90.2832H158.348V100.283ZM170.135 95.2832V61.3965H160.135V95.2832H170.135ZM167.655 65.7147L178.446 59.4158L173.405 50.7795L162.614 57.0783L167.655 65.7147ZM178.498 59.3851L180.696 58.0668L175.551 49.4918L173.353 50.8102L178.498 59.3851ZM173.123 53.7793V105.098H183.123V53.7793H173.123ZM178.123 100.098H145.359V110.098H178.123V100.098ZM150.359 105.098V5.19531H140.359V105.098H150.359ZM145.359 10.1953H178.123V0.195312H145.359V10.1953ZM173.123 5.19531V20.8203H183.123V5.19531H173.123ZM175.606 16.5002L162.617 24.0686L167.652 32.7087L180.64 25.1404L175.606 16.5002ZM170.135 28.3887V15.5957H160.135V28.3887H170.135ZM165.135 10.5957H158.348V20.5957H165.135V10.5957ZM153.348 15.5957V33.2227H163.348V15.5957H153.348ZM263.768 5.19531H268.768V0.195312H263.768V5.19531ZM263.768 105.098V110.098H268.768V105.098H263.768ZM250.779 105.098H245.779V110.098H250.779V105.098ZM250.779 15.5957H255.779V10.5957H250.779V15.5957ZM243.65 15.5957V10.5957H238.65V15.5957H243.65ZM243.65 105.098V110.098H248.65V105.098H243.65ZM230.564 105.098H225.564V110.098H230.564V105.098ZM230.564 15.5957H235.564V10.5957H230.564V15.5957ZM223.875 15.5957V10.5957H218.875V15.5957H223.875ZM223.875 105.098V110.098H228.875V105.098H223.875ZM210.789 105.098H205.789V110.098H210.789V105.098ZM210.789 5.19531V0.195312H205.789V5.19531H210.789ZM230.369 5.19531L232.605 0.723177L231.549 0.195312H230.369V5.19531ZM230.564 5.29297L233.251 1.07595L233.032 0.93672L232.801 0.820833L230.564 5.29297ZM237.156 9.49219L234.47 13.7092L237.176 15.4334L239.871 13.6909L237.156 9.49219ZM243.65 5.29297L241.793 0.650585L241.343 0.830795L240.935 1.09427L243.65 5.29297ZM243.895 5.19531V0.195312H242.932L242.038 0.552929L243.895 5.19531ZM258.768 5.19531V105.098H268.768V5.19531H258.768ZM263.768 100.098H250.779V110.098H263.768V100.098ZM255.779 105.098V15.5957H245.779V105.098H255.779ZM250.779 10.5957H243.65V20.5957H250.779V10.5957ZM238.65 15.5957V105.098H248.65V15.5957H238.65ZM243.65 100.098H230.564V110.098H243.65V100.098ZM235.564 105.098V15.5957H225.564V105.098H235.564ZM230.564 10.5957H223.875V20.5957H230.564V10.5957ZM218.875 15.5957V105.098H228.875V15.5957H218.875ZM223.875 100.098H210.789V110.098H223.875V100.098ZM215.789 105.098V5.19531H205.789V105.098H215.789ZM210.789 10.1953H230.369V0.195312H210.789V10.1953ZM228.133 9.66745L228.328 9.7651L232.801 0.820833L232.605 0.723177L228.133 9.66745ZM227.878 9.50999L234.47 13.7092L239.843 5.27517L233.251 1.07595L227.878 9.50999ZM239.871 13.6909L246.365 9.49167L240.935 1.09427L234.441 5.29349L239.871 13.6909ZM245.507 9.93535L245.751 9.8377L242.038 0.552929L241.793 0.650585L245.507 9.93535ZM243.895 10.1953H263.768V0.195312H243.895V10.1953ZM290.623 32.5879L293.144 36.9056L295.623 35.4582V32.5879H290.623ZM290.623 15.5957H295.623V10.5957H290.623V15.5957ZM283.934 15.5957V10.5957H278.934V15.5957H283.934ZM283.934 36.4941H278.934V45.2039L286.455 40.8119L283.934 36.4941ZM270.848 5.19531V0.195312H265.848V5.19531H270.848ZM303.709 5.19531H308.709V0.195312H303.709V5.19531ZM303.709 105.098V110.098H308.709V105.098H303.709ZM290.623 105.098H285.623V110.098H290.623V105.098ZM290.623 42.6953H295.623V33.9856L288.102 38.3776L290.623 42.6953ZM283.934 46.6016L281.412 42.2838L278.934 43.7312V46.6016H283.934ZM283.934 105.098V110.098H288.934V105.098H283.934ZM270.848 105.098H265.848V110.098H270.848V105.098ZM295.623 32.5879V15.5957H285.623V32.5879H295.623ZM290.623 10.5957H283.934V20.5957H290.623V10.5957ZM278.934 15.5957V36.4941H288.934V15.5957H278.934ZM286.455 40.8119L293.144 36.9056L288.102 28.2701L281.412 32.1764L286.455 40.8119ZM270.848 10.1953H303.709V0.195312H270.848V10.1953ZM298.709 5.19531V105.098H308.709V5.19531H298.709ZM303.709 100.098H290.623V110.098H303.709V100.098ZM295.623 105.098V42.6953H285.623V105.098H295.623ZM288.102 38.3776L281.412 42.2838L286.455 50.9193L293.144 47.0131L288.102 38.3776ZM278.934 46.6016V105.098H288.934V46.6016H278.934ZM283.934 100.098H270.848V110.098H283.934V100.098ZM275.848 105.098V5.19531H265.848V105.098H275.848ZM330.564 5.19531V0.195312H325.564V5.19531H330.564ZM343.553 5.19531H348.553V0.195312H343.553V5.19531ZM343.553 105.098V110.098H348.553V105.098H343.553ZM330.564 105.098H325.564V110.098H330.564V105.098ZM330.564 48.1152H335.564V46.7621L334.882 45.5936L330.564 48.1152ZM323.777 36.4941L328.095 33.9725L318.777 18.0187V36.4941H323.777ZM323.777 105.098V110.098H328.777V105.098H323.777ZM310.789 105.098H305.789V110.098H310.789V105.098ZM310.789 5.19531V0.195312H305.789V5.19531H310.789ZM323.777 5.19531H328.777V0.195312H323.777V5.19531ZM323.777 19.6973H318.777V21.0703L319.479 22.2508L323.777 19.6973ZM330.564 31.123L326.266 33.6766L335.564 49.3306V31.123H330.564ZM330.564 10.1953H343.553V0.195312H330.564V10.1953ZM338.553 5.19531V105.098H348.553V5.19531H338.553ZM343.553 100.098H330.564V110.098H343.553V100.098ZM335.564 105.098V48.1152H325.564V105.098H335.564ZM334.882 45.5936L328.095 33.9725L319.46 39.0158L326.247 50.6368L334.882 45.5936ZM318.777 36.4941V105.098H328.777V36.4941H318.777ZM323.777 100.098H310.789V110.098H323.777V100.098ZM315.789 105.098V5.19531H305.789V105.098H315.789ZM310.789 10.1953H323.777V0.195312H310.789V10.1953ZM318.777 5.19531V19.6973H328.777V5.19531H318.777ZM319.479 22.2508L326.266 33.6766L334.863 28.5695L328.076 17.1437L319.479 22.2508ZM335.564 31.123V5.19531H325.564V31.123H335.564ZM363.621 5.19531H368.621V0.195312H363.621V5.19531ZM363.621 105.098V110.098H368.621V105.098H363.621ZM350.633 105.098H345.633V110.098H350.633V105.098ZM350.633 5.19531V0.195312H345.633V5.19531H350.633ZM358.621 5.19531V105.098H368.621V5.19531H358.621ZM363.621 100.098H350.633V110.098H363.621V100.098ZM355.633 105.098V5.19531H345.633V105.098H355.633ZM350.633 10.1953H363.621V0.195312H350.633V10.1953ZM383.738 35.1758H378.738V43.7216L386.188 39.5345L383.738 35.1758ZM390.428 31.416L392.878 35.7747L395.428 34.3414V31.416H390.428ZM390.428 15.2051H395.428V10.2051H390.428V15.2051ZM383.738 15.2051V10.2051H378.738V15.2051H383.738ZM390.428 5.19531L393.466 1.22394L392.121 0.195312H390.428V5.19531ZM403.514 15.2051H408.514V12.7346L406.551 11.2337L403.514 15.2051ZM403.514 100.801L407.892 103.216L408.514 102.089V100.801H403.514ZM398.826 109.297L403.061 111.955L403.136 111.836L403.204 111.712L398.826 109.297ZM390.428 122.676H385.428V140.045L394.663 125.334L390.428 122.676ZM390.428 41.084H395.428V32.4837L387.954 36.7389L390.428 41.084ZM383.738 44.8926L381.264 40.5475L378.738 41.9857V44.8926H383.738ZM383.738 122.676L379.504 125.334L388.738 140.045V122.676H383.738ZM375.34 109.297L370.962 111.712L371.03 111.836L371.105 111.955L375.34 109.297ZM370.652 100.801H365.652V102.089L366.274 103.216L370.652 100.801ZM370.652 5.19531V0.195312H365.652V5.19531H370.652ZM386.188 39.5345L392.878 35.7747L387.978 27.0573L381.288 30.8171L386.188 39.5345ZM395.428 31.416V15.2051H385.428V31.416H395.428ZM390.428 10.2051H383.738V20.2051H390.428V10.2051ZM378.738 15.2051V35.1758H388.738V15.2051H378.738ZM387.39 9.16668L400.476 19.1764L406.551 11.2337L393.466 1.22394L387.39 9.16668ZM398.514 15.2051V100.801H408.514V15.2051H398.514ZM399.136 98.3854L394.448 106.881L403.204 111.712L407.892 103.216L399.136 98.3854ZM394.591 106.639L386.193 120.017L394.663 125.334L403.061 111.955L394.591 106.639ZM395.428 122.676V41.084H385.428V122.676H395.428ZM387.954 36.7389L381.264 40.5475L386.212 49.2377L392.902 45.4291L387.954 36.7389ZM378.738 44.8926V122.676H388.738V44.8926H378.738ZM387.973 120.017L379.575 106.639L371.105 111.955L379.504 125.334L387.973 120.017ZM379.718 106.881L375.03 98.3854L366.274 103.216L370.962 111.712L379.718 106.881ZM375.652 100.801V5.19531H365.652V100.801H375.652ZM370.652 10.1953H390.428V0.195312H370.652V10.1953Z" fill="black"/>
</svg>
