<svg width="100" height="99" viewBox="0 0 100 99" fill="none" xmlns="http://www.w3.org/2000/svg">
<path d="M48.8293 37.7178C37.0878 36.9477 26.6441 31.3661 19.6487 22.9056L19.1979 22.3602L18.8344 22.9673C17.5163 25.169 16.7769 27.7111 16.7768 30.4754C16.7727 32.9268 17.387 35.3405 18.5642 37.5012C19.4506 39.128 20.6352 40.573 22.0529 41.7665C20.3911 41.5002 18.8204 40.9518 17.4294 40.1828L16.6875 39.7727V40.6204V40.7957C16.6875 47.2671 20.8451 52.7333 26.671 54.8059C25.2406 54.9602 23.8612 54.8908 22.3712 54.6736L21.5746 54.5575L21.8236 55.323C23.6064 60.8046 28.5574 64.8861 34.5755 65.5466C29.8331 68.8468 24.0598 70.7719 17.8125 70.7719C16.6196 70.7719 15.5005 70.7285 14.3409 70.5997L14.0193 71.5198C20.5705 75.644 28.3635 78.0381 36.7634 78.0381C64.0083 78.0381 78.9152 55.8747 78.9152 36.6548V36.6458C78.9152 36.1279 78.9152 35.5788 78.8867 35.0369C81.6971 32.9936 84.1586 30.4693 86.1254 27.6277L87.1074 26.2091L85.519 26.8829C83.5594 27.7142 81.4781 28.3716 79.3319 28.7733C81.5772 26.982 83.2762 24.5778 84.1804 21.8246L84.5919 20.5715L83.4531 21.2369C80.7635 22.8083 77.7413 23.9719 74.5904 24.5887C71.8316 21.8034 67.9868 20.095 63.7277 20.095C54.7024 20.095 47.1337 27.9291 48.8293 37.7178ZM10.7143 0.5H89.2857C94.9336 0.5 99.5 4.99544 99.5 10.5166V87.6384C99.5 93.1595 94.9336 97.655 89.2857 97.655H10.7143C5.06643 97.655 0.5 93.1595 0.5 87.6384V10.5166C0.5 4.99544 5.06643 0.5 10.7143 0.5Z" fill="white" stroke="black"/>
</svg>
