<svg width="42" height="47" viewBox="0 0 42 47" fill="none" xmlns="http://www.w3.org/2000/svg">
<g clip-path="url(#clip0)">
<path d="M20.5091 23.5C26.9823 23.5 32.2286 18.24 32.2286 11.75C32.2286 5.25996 26.9823 0 20.5091 0C14.0359 0 8.78961 5.25996 8.78961 11.75C8.78961 18.24 14.0359 23.5 20.5091 23.5ZM28.7127 26.4375H27.1837C25.1511 27.3738 22.8896 27.9062 20.5091 27.9062C18.1286 27.9062 15.8762 27.3738 13.8345 26.4375H12.3055C5.51182 26.4375 0 31.9637 0 38.775V42.5938C0 45.0264 1.96851 47 4.3948 47H36.6234C39.0497 47 41.0182 45.0264 41.0182 42.5938V38.775C41.0182 31.9637 35.5064 26.4375 28.7127 26.4375Z" fill="white"/>
</g>
<defs>
<clipPath id="clip0">
<rect width="41.0182" height="47" fill="white"/>
</clipPath>
</defs>
</svg>
