<svg width="399" height="118" viewBox="0 0 399 118" fill="none" xmlns="http://www.w3.org/2000/svg">
<path d="M33.2793 90.2832L28.5918 98.7793L16.9219 117.676L5.20312 98.7793L0.515625 90.2832V0.195312H33.2793V15.918L20.291 23.4863V10.5957H13.5039V90.2832L16.9219 100.684L20.291 90.2832V37.8906L16.6777 39.9902V29.8828L20.291 27.7832L33.2793 20.2148V90.2832ZM238.895 0.195312H258.768V100.195L254.08 106.982L245.779 117.676V10.5957H238.65V100.195L232.156 117.676L225.564 100.195V10.5957H218.875V117.676L210.477 106.982L205.789 100.195V0.195312H225.369L225.564 0.390625L232.156 4.58984L238.65 0.390625L238.895 0.195312Z" fill="#A7FF00"/>
<path d="M60.1348 27.5879V10.5957H53.4453V31.4941L60.1348 27.5879ZM40.3594 0.195312H73.2207V100.098H60.1348V37.6953L53.4453 41.6016V100.098H40.3594V0.195312ZM133.279 0.195312V100.098H120.291V10.5957H113.162V100.098H100.076V10.5957H93.3867V100.098H80.3008V0.195312H99.8809L100.076 0.292969L106.668 4.49219L113.162 0.292969L113.406 0.195312H133.279ZM153.348 28.2227L153.055 28.418H173.66L173.123 28.7109L160.135 36.2793L158.621 37.207H153.348V90.2832H160.135V56.3965L170.926 50.0977L173.123 48.7793V100.098H140.359V0.195312H173.123V15.8203L160.135 23.3887V10.5957H153.348V28.2227ZM285.623 27.5879V10.5957H278.934V31.4941L285.623 27.5879ZM265.848 0.195312H298.709V100.098H285.623V37.6953L278.934 41.6016V100.098H265.848V0.195312ZM325.564 0.195312H338.553V100.098H325.564V43.1152L318.777 31.4941V100.098H305.789V0.195312H318.777V14.6973L325.564 26.123V0.195312ZM358.621 0.195312V100.098H345.633V0.195312H358.621ZM385.428 27.5879V10.5957H378.738V31.4941L385.428 27.5879ZM365.652 0.195312H398.514V100.098H385.428V37.6953L378.738 41.6016V100.098H365.652V0.195312Z" fill="white"/>
</svg>
