<svg width="86" height="86" viewBox="0 0 86 86" fill="none" xmlns="http://www.w3.org/2000/svg">
<circle cx="42.9133" cy="42.9133" r="39.4133" stroke="white" stroke-width="7"/>
<path d="M43 51.5C50.575 51.5 56.7143 45.3447 56.7143 37.75C56.7143 30.1553 50.575 24 43 24C35.425 24 29.2857 30.1553 29.2857 37.75C29.2857 45.3447 35.425 51.5 43 51.5ZM52.6 54.9375H50.8107C48.4321 56.0332 45.7857 56.6562 43 56.6562C40.2143 56.6562 37.5786 56.0332 35.1893 54.9375H33.4C25.45 54.9375 19 61.4043 19 69.375V73.8438C19 76.6904 21.3036 79 24.1429 79H61.8571C64.6964 79 67 76.6904 67 73.8438V69.375C67 61.4043 60.55 54.9375 52.6 54.9375Z" fill="white"/>
</svg>
