<svg width="86" height="86" viewBox="0 0 86 86" fill="none" xmlns="http://www.w3.org/2000/svg">
<circle cx="42.9133" cy="42.9133" r="39.4133" stroke="white" stroke-width="7"/>
<path d="M61.3425 46.952L64.9536 31.1083C65.2144 29.9643 64.3424 28.875 63.1659 28.875H33.1617L32.4615 25.4617C32.2871 24.611 31.5363 24 30.6654 24H22.8333C21.8208 24 21 24.8185 21 25.8281V27.0469C21 28.0565 21.8208 28.875 22.8333 28.875H28.1716L33.5378 55.0351C32.254 55.7713 31.3889 57.1517 31.3889 58.7344C31.3889 61.0902 33.3041 63 35.6667 63C38.0292 63 39.9444 61.0902 39.9444 58.7344C39.9444 57.5405 39.452 56.4618 38.6593 55.6875H54.674C53.8814 56.4618 53.3889 57.5405 53.3889 58.7344C53.3889 61.0902 55.3041 63 57.6667 63C60.0292 63 61.9444 61.0902 61.9444 58.7344C61.9444 57.0455 60.9599 55.586 59.5322 54.8949L59.9536 53.0458C60.2143 51.9018 59.3423 50.8125 58.1659 50.8125H37.6617L37.1618 48.375H59.5548C60.4108 48.375 61.1528 47.7844 61.3425 46.952Z" fill="white"/>
</svg>
