<svg width="86" height="86" viewBox="0 0 86 86" fill="none" xmlns="http://www.w3.org/2000/svg">
<circle cx="42.9133" cy="42.9133" r="39.4133" stroke="white" stroke-width="7"/>
<g clip-path="url(#clip0)">
<path d="M42.5091 41.5C48.9823 41.5 54.2286 36.24 54.2286 29.75C54.2286 23.26 48.9823 18 42.5091 18C36.0359 18 30.7896 23.26 30.7896 29.75C30.7896 36.24 36.0359 41.5 42.5091 41.5ZM50.7127 44.4375H49.1837C47.1511 45.3738 44.8896 45.9062 42.5091 45.9062C40.1286 45.9062 37.8762 45.3738 35.8345 44.4375H34.3055C27.5118 44.4375 22 49.9637 22 56.775V60.5938C22 63.0264 23.9685 65 26.3948 65H58.6234C61.0497 65 63.0182 63.0264 63.0182 60.5938V56.775C63.0182 49.9637 57.5064 44.4375 50.7127 44.4375Z" fill="white"/>
</g>
<defs>
<clipPath id="clip0">
<rect width="41.0182" height="47" fill="white" transform="translate(22 18)"/>
</clipPath>
</defs>
</svg>
